<mxfile host="Electron" agent="Mozilla/5.0 (Windows NT 10.0; Win64; x64) AppleWebKit/537.36 (KHTML, like Gecko) draw.io/28.0.6 Chrome/138.0.7204.100 Electron/37.2.3 Safari/537.36" version="28.0.6">
  <diagram name="BasicRAG" id="N20TbFZN7vyDefZSzvWA">
    <mxGraphModel dx="1892" dy="626" grid="1" gridSize="10" guides="1" tooltips="1" connect="1" arrows="1" fold="1" page="1" pageScale="1" pageWidth="850" pageHeight="1100" math="0" shadow="0">
      <root>
        <mxCell id="0" />
        <mxCell id="1" parent="0" />
        <mxCell id="hfhjx1psEvGFCQ7NBTE0-28" value="" style="rounded=1;whiteSpace=wrap;html=1;dashed=1;dashPattern=12 12;" vertex="1" parent="1">
          <mxGeometry x="630" y="310" width="190" height="309" as="geometry" />
        </mxCell>
        <mxCell id="hfhjx1psEvGFCQ7NBTE0-23" style="edgeStyle=orthogonalEdgeStyle;rounded=0;orthogonalLoop=1;jettySize=auto;html=1;entryX=0;entryY=0.5;entryDx=0;entryDy=0;" edge="1" parent="1" source="hfhjx1psEvGFCQ7NBTE0-17" target="hfhjx1psEvGFCQ7NBTE0-1">
          <mxGeometry relative="1" as="geometry">
            <Array as="points">
              <mxPoint x="550" y="550" />
              <mxPoint x="550" y="550" />
            </Array>
          </mxGeometry>
        </mxCell>
        <mxCell id="hfhjx1psEvGFCQ7NBTE0-17" value="" style="rounded=1;whiteSpace=wrap;html=1;dashed=1;" vertex="1" parent="1">
          <mxGeometry x="210" y="50" width="310" height="570" as="geometry" />
        </mxCell>
        <mxCell id="hfhjx1psEvGFCQ7NBTE0-14" style="edgeStyle=orthogonalEdgeStyle;rounded=0;orthogonalLoop=1;jettySize=auto;html=1;entryX=0.5;entryY=0;entryDx=0;entryDy=0;" edge="1" parent="1" source="hfhjx1psEvGFCQ7NBTE0-9" target="hfhjx1psEvGFCQ7NBTE0-6">
          <mxGeometry relative="1" as="geometry" />
        </mxCell>
        <mxCell id="hfhjx1psEvGFCQ7NBTE0-9" value="" style="rounded=1;whiteSpace=wrap;html=1;dashed=1;dashPattern=8 8;" vertex="1" parent="1">
          <mxGeometry x="290" y="280" width="160" height="130" as="geometry" />
        </mxCell>
        <mxCell id="hfhjx1psEvGFCQ7NBTE0-12" style="edgeStyle=orthogonalEdgeStyle;rounded=0;orthogonalLoop=1;jettySize=auto;html=1;" edge="1" parent="1" source="hfhjx1psEvGFCQ7NBTE0-7" target="hfhjx1psEvGFCQ7NBTE0-3">
          <mxGeometry relative="1" as="geometry" />
        </mxCell>
        <mxCell id="hfhjx1psEvGFCQ7NBTE0-7" value="" style="rounded=1;whiteSpace=wrap;html=1;dashed=1;dashPattern=8 8;arcSize=19;" vertex="1" parent="1">
          <mxGeometry x="240" y="79" width="252" height="131" as="geometry" />
        </mxCell>
        <mxCell id="hfhjx1psEvGFCQ7NBTE0-1" value="retrieved context" style="rounded=0;whiteSpace=wrap;html=1;" vertex="1" parent="1">
          <mxGeometry x="670" y="520" width="120" height="60" as="geometry" />
        </mxCell>
        <mxCell id="hfhjx1psEvGFCQ7NBTE0-33" style="edgeStyle=orthogonalEdgeStyle;rounded=0;orthogonalLoop=1;jettySize=auto;html=1;" edge="1" parent="1" source="hfhjx1psEvGFCQ7NBTE0-2" target="hfhjx1psEvGFCQ7NBTE0-19">
          <mxGeometry relative="1" as="geometry" />
        </mxCell>
        <mxCell id="hfhjx1psEvGFCQ7NBTE0-2" value="" style="shape=actor;whiteSpace=wrap;html=1;" vertex="1" parent="1">
          <mxGeometry x="-110" y="520" width="40" height="60" as="geometry" />
        </mxCell>
        <mxCell id="hfhjx1psEvGFCQ7NBTE0-3" value="" style="sketch=0;outlineConnect=0;fontColor=#232F3E;gradientColor=none;fillColor=#8C4FFF;strokeColor=none;dashed=0;verticalLabelPosition=bottom;verticalAlign=top;align=center;html=1;fontSize=12;fontStyle=0;aspect=fixed;pointerEvents=1;shape=mxgraph.aws4.search_documents;" vertex="1" parent="1">
          <mxGeometry x="332" y="290" width="68" height="78" as="geometry" />
        </mxCell>
        <mxCell id="hfhjx1psEvGFCQ7NBTE0-4" value="" style="html=1;verticalLabelPosition=bottom;align=center;labelBackgroundColor=#ffffff;verticalAlign=top;strokeWidth=2;strokeColor=#0080F0;shadow=0;dashed=0;shape=mxgraph.ios7.icons.folders;" vertex="1" parent="1">
          <mxGeometry x="370" y="102.13" width="70" height="53.75" as="geometry" />
        </mxCell>
        <mxCell id="hfhjx1psEvGFCQ7NBTE0-5" value="" style="html=1;verticalLabelPosition=bottom;align=center;labelBackgroundColor=#ffffff;verticalAlign=top;strokeWidth=2;strokeColor=#0080F0;shadow=0;dashed=0;shape=mxgraph.ios7.icons.documents;" vertex="1" parent="1">
          <mxGeometry x="290" y="94" width="60" height="70" as="geometry" />
        </mxCell>
        <mxCell id="hfhjx1psEvGFCQ7NBTE0-6" value="" style="image;html=1;image=img/lib/clip_art/computers/Database_128x128.png" vertex="1" parent="1">
          <mxGeometry x="330" y="479" width="80" height="80" as="geometry" />
        </mxCell>
        <mxCell id="hfhjx1psEvGFCQ7NBTE0-8" value="documents" style="text;html=1;align=center;verticalAlign=middle;whiteSpace=wrap;rounded=0;" vertex="1" parent="1">
          <mxGeometry x="325" y="180" width="82" height="30" as="geometry" />
        </mxCell>
        <mxCell id="hfhjx1psEvGFCQ7NBTE0-10" value="chunked documents" style="text;html=1;align=center;verticalAlign=middle;whiteSpace=wrap;rounded=0;" vertex="1" parent="1">
          <mxGeometry x="336" y="370" width="64" height="30" as="geometry" />
        </mxCell>
        <mxCell id="hfhjx1psEvGFCQ7NBTE0-11" value="vector database" style="text;html=1;align=center;verticalAlign=middle;whiteSpace=wrap;rounded=0;" vertex="1" parent="1">
          <mxGeometry x="336" y="569" width="60" height="30" as="geometry" />
        </mxCell>
        <mxCell id="hfhjx1psEvGFCQ7NBTE0-15" value="chunking" style="text;html=1;align=center;verticalAlign=middle;whiteSpace=wrap;rounded=0;" vertex="1" parent="1">
          <mxGeometry x="375" y="230" width="60" height="30" as="geometry" />
        </mxCell>
        <mxCell id="hfhjx1psEvGFCQ7NBTE0-16" value="vectorize + store" style="text;html=1;align=center;verticalAlign=middle;whiteSpace=wrap;rounded=0;" vertex="1" parent="1">
          <mxGeometry x="380" y="435" width="60" height="30" as="geometry" />
        </mxCell>
        <mxCell id="hfhjx1psEvGFCQ7NBTE0-18" value="Indexing" style="text;html=1;align=center;verticalAlign=middle;whiteSpace=wrap;rounded=0;" vertex="1" parent="1">
          <mxGeometry x="240" y="20" width="60" height="30" as="geometry" />
        </mxCell>
        <mxCell id="hfhjx1psEvGFCQ7NBTE0-27" style="edgeStyle=orthogonalEdgeStyle;rounded=1;orthogonalLoop=1;jettySize=auto;html=1;exitX=0.5;exitY=1;exitDx=0;exitDy=0;entryX=1;entryY=0.5;entryDx=0;entryDy=0;curved=0;" edge="1" parent="1" source="hfhjx1psEvGFCQ7NBTE0-19" target="hfhjx1psEvGFCQ7NBTE0-26">
          <mxGeometry relative="1" as="geometry">
            <Array as="points">
              <mxPoint x="45" y="680" />
              <mxPoint x="840" y="680" />
              <mxPoint x="840" y="465" />
            </Array>
          </mxGeometry>
        </mxCell>
        <mxCell id="hfhjx1psEvGFCQ7NBTE0-19" value="Query" style="rounded=1;whiteSpace=wrap;html=1;" vertex="1" parent="1">
          <mxGeometry y="520" width="90" height="60" as="geometry" />
        </mxCell>
        <mxCell id="hfhjx1psEvGFCQ7NBTE0-20" style="edgeStyle=orthogonalEdgeStyle;rounded=0;orthogonalLoop=1;jettySize=auto;html=1;entryX=0.006;entryY=0.878;entryDx=0;entryDy=0;entryPerimeter=0;" edge="1" parent="1" source="hfhjx1psEvGFCQ7NBTE0-19" target="hfhjx1psEvGFCQ7NBTE0-17">
          <mxGeometry relative="1" as="geometry" />
        </mxCell>
        <mxCell id="hfhjx1psEvGFCQ7NBTE0-21" value="vectorize + search" style="text;html=1;align=center;verticalAlign=middle;whiteSpace=wrap;rounded=0;" vertex="1" parent="1">
          <mxGeometry x="120" y="510" width="60" height="30" as="geometry" />
        </mxCell>
        <mxCell id="hfhjx1psEvGFCQ7NBTE0-24" value="retrieved" style="text;html=1;align=center;verticalAlign=middle;whiteSpace=wrap;rounded=0;" vertex="1" parent="1">
          <mxGeometry x="540" y="520" width="60" height="30" as="geometry" />
        </mxCell>
        <mxCell id="hfhjx1psEvGFCQ7NBTE0-25" value="promts" style="rounded=0;whiteSpace=wrap;html=1;" vertex="1" parent="1">
          <mxGeometry x="670" y="350" width="120" height="60" as="geometry" />
        </mxCell>
        <mxCell id="hfhjx1psEvGFCQ7NBTE0-26" value="query" style="rounded=0;whiteSpace=wrap;html=1;" vertex="1" parent="1">
          <mxGeometry x="670" y="435" width="120" height="60" as="geometry" />
        </mxCell>
        <mxCell id="hfhjx1psEvGFCQ7NBTE0-29" value="Augment" style="text;html=1;align=center;verticalAlign=middle;whiteSpace=wrap;rounded=0;" vertex="1" parent="1">
          <mxGeometry x="650" y="270" width="60" height="30" as="geometry" />
        </mxCell>
        <mxCell id="hfhjx1psEvGFCQ7NBTE0-32" style="edgeStyle=orthogonalEdgeStyle;rounded=0;orthogonalLoop=1;jettySize=auto;html=1;entryX=0.5;entryY=1;entryDx=0;entryDy=0;" edge="1" parent="1" source="hfhjx1psEvGFCQ7NBTE0-30" target="hfhjx1psEvGFCQ7NBTE0-2">
          <mxGeometry relative="1" as="geometry" />
        </mxCell>
        <mxCell id="hfhjx1psEvGFCQ7NBTE0-30" value="" style="shape=mxgraph.signs.healthcare.brain;html=1;pointerEvents=1;fillColor=#000000;strokeColor=none;verticalLabelPosition=bottom;verticalAlign=top;align=center;" vertex="1" parent="1">
          <mxGeometry x="330" y="760" width="89" height="85" as="geometry" />
        </mxCell>
        <mxCell id="hfhjx1psEvGFCQ7NBTE0-31" style="edgeStyle=orthogonalEdgeStyle;rounded=0;orthogonalLoop=1;jettySize=auto;html=1;entryX=1;entryY=0.5;entryDx=0;entryDy=0;entryPerimeter=0;" edge="1" parent="1" source="hfhjx1psEvGFCQ7NBTE0-28" target="hfhjx1psEvGFCQ7NBTE0-30">
          <mxGeometry relative="1" as="geometry">
            <Array as="points">
              <mxPoint x="900" y="430" />
              <mxPoint x="900" y="803" />
            </Array>
          </mxGeometry>
        </mxCell>
        <mxCell id="hfhjx1psEvGFCQ7NBTE0-34" value="Large Language model" style="text;html=1;align=center;verticalAlign=middle;whiteSpace=wrap;rounded=0;" vertex="1" parent="1">
          <mxGeometry x="320" y="860" width="130" height="30" as="geometry" />
        </mxCell>
        <mxCell id="hfhjx1psEvGFCQ7NBTE0-35" value="Generate" style="text;html=1;align=center;verticalAlign=middle;whiteSpace=wrap;rounded=0;" vertex="1" parent="1">
          <mxGeometry x="140" y="770" width="130" height="30" as="geometry" />
        </mxCell>
      </root>
    </mxGraphModel>
  </diagram>
</mxfile>
